<svg xmlns="http://www.w3.org/2000/svg" xmlns:xlink="http://www.w3.org/1999/xlink" width="500" zoomAndPan="magnify" viewBox="0 0 375 374.999991" height="500" preserveAspectRatio="xMidYMid meet" version="1.0"><defs><clipPath id="2daca3329c"><path d="M 37 90 L 341 90 L 341 285.351562 L 37 285.351562 Z M 37 90 " clip-rule="nonzero"/></clipPath></defs><path fill="#0d73de" d="M 331.082031 161.214844 L 200.84375 208.386719 L 200.84375 211.5 L 331.984375 163.914062 C 334.195312 163.015625 332.882812 160.316406 331.082031 161.214844 Z M 331.082031 161.214844 " fill-opacity="1" fill-rule="nonzero"/><g clip-path="url(#2daca3329c)"><path fill="#0d73de" d="M 334.609375 140.328125 L 203.472656 92.328125 C 197.664062 90.113281 189.226562 89.628906 185.699219 91.011719 L 47.023438 141.640625 C 34.15625 146.070312 32.773438 173.664062 48.820312 179.890625 L 72.820312 188.328125 C 72.820312 188.742188 72.820312 188.742188 72.820312 189.226562 C 68.394531 197.25 66.597656 207.003906 65.28125 219.9375 C 62.167969 222.152344 59.957031 225.261719 59.957031 229.273438 C 59.957031 230.589844 60.371094 231.972656 60.855469 233.285156 C 53.730469 243.039062 47.089844 249.746094 40.382812 253.273438 C 41.695312 254.589844 42.59375 256.386719 43.910156 257.703125 C 47.023438 256.386719 50.132812 254.589844 52.347656 251.890625 C 50.550781 255.003906 48.820312 257.703125 46.121094 259.914062 C 51.933594 264.824219 58.988281 267.039062 68.808594 266.554688 C 75.449219 255.417969 78.144531 245.667969 77.246094 237.230469 C 79.945312 235.429688 81.257812 232.316406 81.257812 229.207031 C 81.257812 225.679688 79.460938 222.566406 76.832031 220.765625 C 78.144531 209.21875 79.945312 200.777344 83.058594 194.554688 C 86.585938 187.914062 91.980469 183.003906 100.417969 179.40625 L 190.609375 146.136719 C 193.722656 144.824219 195.035156 141.710938 194.136719 138.597656 C 192.824219 135.902344 190.125 134.171875 187.011719 135.070312 C 196.765625 131.542969 204.789062 146.621094 194.136719 151.050781 L 103.875 184.386719 C 97.652344 187.085938 93.222656 190.613281 89.628906 194.625 L 94.539062 196.421875 L 94.539062 247.121094 C 94.125 270.21875 146.964844 284.953125 192.753906 285.367188 C 236.328125 285.367188 283.84375 269.390625 283.015625 247.121094 L 283.015625 203.0625 L 197.664062 228.859375 L 336.339844 178.160156 C 340.351562 176.847656 338.136719 172.835938 335.027344 174.148438 L 201.675781 222.152344 C 186.113281 224.363281 184.316406 205.691406 196.351562 198.566406 C 199.878906 196.351562 216.824219 191.027344 221.664062 189.226562 L 338.136719 146.554688 C 342.21875 145.238281 340.421875 142.125 334.609375 140.328125 Z M 334.609375 140.328125 " fill-opacity="1" fill-rule="nonzero"/></g><path fill="#0d73de" d="M 331.082031 154.578125 L 200.84375 201.746094 L 200.84375 204.859375 L 331.984375 157.203125 C 334.195312 156.375 332.882812 153.675781 331.082031 154.578125 Z M 331.082031 154.578125 " fill-opacity="1" fill-rule="nonzero"/><path fill="#0d73de" d="M 331.082031 167.925781 L 200.84375 215.097656 L 200.84375 218.207031 L 331.984375 170.621094 C 334.195312 169.65625 332.882812 167.027344 331.082031 167.925781 Z M 331.082031 167.925781 " fill-opacity="1" fill-rule="nonzero"/></svg>